<?xml version="1.0" encoding="utf-8"?>
<!-- Generator: Adobe Illustrator 25.4.1, SVG Export Plug-In . SVG Version: 6.00 Build 0)  -->
<!DOCTYPE svg PUBLIC "-//W3C//DTD SVG 1.1//EN" "http://www.w3.org/Graphics/SVG/1.1/DTD/svg11.dtd" [
	<!ENTITY ns_extend "http://ns.adobe.com/Extensibility/1.0/">
	<!ENTITY ns_ai "http://ns.adobe.com/AdobeIllustrator/10.0/">
	<!ENTITY ns_graphs "http://ns.adobe.com/Graphs/1.0/">
	<!ENTITY ns_vars "http://ns.adobe.com/Variables/1.0/">
	<!ENTITY ns_imrep "http://ns.adobe.com/ImageReplacement/1.0/">
	<!ENTITY ns_sfw "http://ns.adobe.com/SaveForWeb/1.0/">
	<!ENTITY ns_custom "http://ns.adobe.com/GenericCustomNamespace/1.0/">
	<!ENTITY ns_adobe_xpath "http://ns.adobe.com/XPath/1.0/">
]>
<svg version="1.1" id="Capa_1" xmlns:x="&ns_extend;" xmlns:i="&ns_ai;" xmlns:graph="&ns_graphs;"
	 xmlns="http://www.w3.org/2000/svg" xmlns:xlink="http://www.w3.org/1999/xlink" x="0px" y="0px" width="100px" height="100px"
	 viewBox="0 0 100 100" style="enable-background:new 0 0 100 100;" xml:space="preserve">
<style type="text/css">
	.st0{fill:#FFFFFF;}
</style>
<metadata>
	<sfw  xmlns="&ns_sfw;">
		<slices></slices>
		<sliceSourceBounds  bottomLeftOrigin="true" height="63.9" width="100" x="-0.1" y="18"></sliceSourceBounds>
	</sfw>
</metadata>
<g>
	<path class="st0" d="M0.4,64.8l5.2,11.6h5c-0.3-0.8-0.4-1.7-0.4-2.6c0-4.6,3.7-8.4,8.4-8.4c4.6,0,8.4,3.7,8.4,8.4
		c0,0.9-0.2,1.7-0.4,2.5L65,76.2l0.7-0.1c-0.1-0.5-0.1-0.9-0.1-1.4c0-4.1,3.4-7.5,7.5-7.5c4.1,0,7.5,3.4,7.5,7.5
		c0,0.4,0,0.7-0.1,1.1h4.1l0.6-13.4l7.6-6.1L98.5,46l-7.3-5.8l-0.7-4.9L78.3,25.2L70.1,23l-3.7,0.5l-1.3-4l-8.2,1.1l-5.5,2L49.5,20
		l-11.7,3.5l-11,15.1c-0.1,0-23.1,2.2-23.1,2.2l5.9,13L0.4,64.8z"/>
	<circle cx="73.1" cy="74.9" r="7.1"/>
	<circle class="st0" cx="73.1" cy="74.9" r="1.8"/>
	<circle cx="18.5" cy="74.9" r="7.1"/>
	<circle class="st0" cx="18.5" cy="74.9" r="1.8"/>
	<g>
		<path d="M40.2,26.2c0,0.3,0.5,0.3,0.6,0.1c0.1-0.2,0.7-0.7,1-0.9c-0.1,0.1,0,0,0,0c0.6-0.3,1.2-0.6,1.9-0.8h-0.1
			c0.7-0.2,1.5-0.4,2.2-0.5c0.4,0,0.3-0.7-0.1-0.6c-1.2,0.2-2.5,0.5-3.6,1.1C41.5,24.9,40.2,25.6,40.2,26.2z"/>
		<path d="M34.9,76.9h0.8H34.9z"/>
		<path d="M26.7,76.2c-0.1,0.3-0.2,0.3-0.3,0.6c7.2,0.6,31.6,0,39.3-0.2c-0.1-0.4-0.2-0.8-0.2-1.3c-6,0.7-32.9,0.2-38.7,0.5
			c0-0.1,0,0,0,0L26.7,76.2z"/>
		<path d="M-0.1,64.5c1.3,3.1,4.1,9.3,5.5,12.3h5.4c-0.2-0.4-0.2-0.8-0.3-1.2H6.1c-1.2-2.7-3.7-8.2-4.8-10.9l9.3-10.9L4.7,41.4
			L27.5,39l5.9-8.1c0.1,2.2,1.1,4.5,2.9,6c-1.9,0.4-3.5,1.7-4.3,3.6L26.5,41l4.3,26l10.8,7.1l10-0.4l-1-4c4.2,3.2,9.9,5.1,15.2,3.8
			c0.2-1.2,0.6-2.3,1.3-3.3c-4.8,2.4-10.3,0.7-14.7-1.6c1.8,0.2,3.6-0.1,5.3-0.6c1.1,0.9,2.4,1.4,3.8,1.6c1.5,0.3,3.1,0.2,4.6-0.2
			c0.2,0,0.1-0.2,0-0.2c-1.4,0-2.9-0.4-4.1-1.1c-0.3-0.2-0.6-0.4-0.9-0.6c-0.6-0.4-0.8-0.8-1.3-1.2c3.8,1.3,8,1,11.6-0.4
			c-0.2,0.6-0.6,1.2-1,1.7c1-0.5,2.3-0.7,3.5-0.6c0.1-0.4,0.3-0.8,0.4-1.2c2.9,0.6,5.9,0.2,8.6-0.9c-0.8,1.9-2.2,3.4-4,4.5
			c0.6,0.7,1.1,1.4,1.4,2.2c1.7-1,3.2-2.4,4.3-4l-0.1,3.6h-1.9l-0.1,3.6h1.8v0.6h-3.4c0,0.4-0.1,0.8-0.2,1.2h4.7l0.1-1.8l4.5,0.1
			c1,0,1.8-0.8,1.8-1.8c0-0.9-0.8-1.8-1.8-1.8l-4.4-0.1l0.2-6c0.3-0.7,0.7-1.6,0.6-2.3c1.7-1.2,3.2-2.8,4.3-4.6
			c4.7-1.6,7.3-6.4,9-10.7c1.4-4.2-3.7-6.4-6.7-7.9c0.5-1.3,0-2.6-0.6-3.8c-2.2-4.4-6.3-7.5-10.8-9.4c1.4-2.7-6-4.2-7.8-4.4
			c-2.1-0.2-4.2-0.3-6.2,0c0.1-1.2,0.8-3.3-0.9-3.8c-5-0.7-10.3,0.2-14.6,2.9c0.3-1.2-0.2-2.1-1.4-2.2c-6.8-0.3-15.2,2.3-17.1,9.6
			L26.8,38l-24,2.5l6.3,13.2L-0.1,64.5z M64.7,21c-0.5,6.7-5.4,12.5-11.8,14.2c-0.6,0.3-1.2,0.1-1.8,0c2.1-0.4,3.9-1.6,5.5-2.9
			s3.2-2.6,4.6-4.1c0.7-0.8,1.3-1.6,1.9-2.4c0.3-0.3-0.3-0.6-0.5-0.3c-0.4,0.6-0.8,1.1-1.2,1.6c-1.8,2.2-4.1,4-6.3,5.7
			c0.1-0.1,0.1-0.1,0.1-0.1c-0.8,0.5-1.7,1-2.6,1.4c-0.6,0.2-1.2,0.4-1.9,0.5c-0.2,0.1-0.3,0.3-0.2,0.5c-1.2-0.1-2.3-0.2-3.4-0.1
			c3.8-4,8.5-8,13.1-10.4c-3.5,1.1-7.1,2.3-10.2,4.3c0.6-1.4,1.1-2.8,1.5-4.2c2.2-1.2,4.1-2.4,6.5-3.1C60.2,21,62.5,20.7,64.7,21z
			 M59.5,43.8c-3.5-2.1-7.8-3.3-11.9-2.4c-1.5-1.2-3.2-2.3-5-3.1c7.1-2.2,15.4,0,20.5,5.4c0.3,0.5-0.3,1-0.7,1.4
			c-4.1,4-9.9,5.6-15.5,5.8c1.1-0.6,2.2-1.3,3.4-1.9c0.6-0.3,1.3-0.6,1.9-1c0.5-0.4,0.9-1.5,0.2-2c-0.9-0.7-1.5-1.7-2.4-2.4
			c3-0.6,6.3-0.7,9.2,0.5C59.4,44.2,59.5,44,59.5,43.8z M77,46.1c-3.5-1.6-7.3-3.7-11.2-2.6c-0.1-1.3-1.1-2.4-2-3.2
			c2.2-0.1,4.5-0.8,6.5-1.8c2.2,1.1,4.4,2.2,6.4,3.7c1.5,1.2,4.9,2.8,3.4,5.1c-2.1,3.6-5.9,5.9-9.7,7.3c-2.8-2.3-6.1-3.9-9.6-4.9
			c1-0.6,2-1.3,2.9-2.1c0.6-0.1,1.2-0.5,1.8-0.8c3.6-1.5,7.7-1.4,11.4-0.3C77.1,46.5,77.2,46.2,77,46.1z M56.4,36.2L56.4,36.2
			c0,0,0-0.1,0.1-0.1C56.5,36.1,56.4,36.1,56.4,36.2z M78.4,26.5c-2.9,6.7-9.5,10.6-16.2,12.6c-0.8-0.6-1.7-1.1-2.6-1.6
			c3.8-4.3,8.9-8.2,14.5-9.6c0.2,0,0.2-0.4-0.1-0.4c-3.3,0.2-6.6,0.7-9.5,2.2c1.1-1.6,1.9-3.4,2.5-5.2c2.1-0.4,4.3-0.5,6.4,0
			C75,24.9,76.7,25.6,78.4,26.5z M88.7,39.9c-1.9,1.5-4.1,2.4-6.2,3.6c-2.2-2.5-5-4.3-7.9-5.9c4-1,8.5-1,12.3,0.9
			c0.2,0.1,0.4-0.2,0.2-0.3c-3.2-2.2-7-3.8-10.9-3.7c1.7-1.6,3-3.4,4.1-5.4c3.8,1.3,6.8,4.1,8.9,7.5C90.4,38.3,90.6,38.8,88.7,39.9z
			 M86.3,49.3c2.5-0.9,5.1-1.7,7.7-1.5c0.1,0.1,0.1-0.2,0-0.2c-3.4-1.4-7.3-1.7-10.7-0.3c0.2-0.7,0.2-1.3,0.1-2
			c1.4-0.2,2.9-0.8,4.2-1.5c-0.1,0.6,0.7,0.4,1,0.5l0,0c0.9,0.1,1.6,0.4,2.3,0.9c0.1,0.1,0.3,0.1,0.4-0.1c0.4-0.8-2.7-1.5-3.2-1.5
			c0.7-0.4,1.3-0.7,1.9-1.1c-0.2,0.1-0.1,0.4,0.1,0.5c0.6,0.2,1.2,0.4,1.7,0.6c0.2,0.1,0.8,0.4,1.1,0.4l0,0c0.7,0.5,0.6,1.4,1.1,1.3
			c0.6-0.2-0.1-1.1-0.3-1.4c-0.8-0.8-2.5-1.6-3.6-1.6c0.3-0.1,0.5-0.3,0.8-0.5c1.2,0.5,6.1,3.1,6,4.4c-0.9,3.1-2.6,6.2-4.7,8.7
			c0.3-0.9,0.5-1.9,0.1-2.8c0.9-0.3,1.6-1.2,2.1-2.1c0.3-0.3-0.3-0.6-0.5-0.3c-0.2,0.3-0.4,0.6-0.6,0.9c-0.2,0.4-0.8,0.8-1.2,1.1
			c-0.3-0.4-0.6-0.7-0.8-0.7c0.2-0.1,0.3-0.3,0.5-0.4c-0.1,0.1-0.1,0.1-0.1,0.1c0.5-0.4,1.1-0.8,1.2-1.4c0-0.3-0.3-0.5-0.5-0.4
			c-0.3,0.1-0.2,0.4-0.4,0.6c0-0.1,0,0,0,0l0,0c-0.2,0.2-0.3,0.3-0.5,0.4c0.1-0.1,0.1-0.1,0.1-0.1c-0.3,0.2-0.8,0.4-0.8,0.8
			C89.4,49.8,87.9,49.4,86.3,49.3z M72.1,56.2c2.7-0.6,5.2-2,7.4-3.8c0.5,0.6,1.3,1,2,1.2c0.4,0.1,0.6-0.5,0.2-0.6
			c-0.3,0-0.5-0.1-0.7-0.2l0,0c-0.4-0.2-0.8-0.4-1.1-0.7c0,0,0.1-0.1,0.2-0.2c0.7,0.1,1.5-0.1,2.3-0.1c1.2,0,2.4,0.2,3.5,0.5
			c0.7,0.2,3.4,0.6,3.5,1.3c-1.7,6.4-8.2,10.5-14.7,10.5c1.3-0.7,2.3-1.7,1.2-3.1c4.2,0.2,8.2-1.8,11.1-4.8c0.1-0.2,0-0.4-0.2-0.3
			c-3.8,2.5-8.8,2.6-13.2,1.9C73.1,57.2,72.6,56.7,72.1,56.2z M55.1,58.7c3.7,1.9,7.9,2.5,12,2.2c0.1,0,0.1-0.2,0-0.2
			c-1.5-0.3-3-0.7-4.5-1.2c-3.9-1.6-7.6-3.8-10.6-6.7c1.9-0.1,3.7-0.6,5.4-1.3c6.3,1.3,11.8,5.3,15.6,10.4c-4.5,3-10.1,3-15.2,2
			C57.1,62,56.2,60.3,55.1,58.7z M45.3,63.4c-0.3-1.3-0.4-2.7-0.6-4c0.3,0.3,0.7,0.5,1,0.8c0.3,0.2,0.6-0.1,0.5-0.4
			c0.2,0.3,5.9,4.2,5.2,2.9c-3.6-2.5-6-6.2-7.9-10c0.1-0.1,0.3-0.1,0.4-0.2c0.7,0.2,1.4,0.4,2.1,0.8c-0.2,0.1-0.2,0.4,0,0.5
			c0.4,0.3,0.9,0.6,1.3,0.9c1.5,1.1,2.8,2.5,3.9,4c-0.1-0.1-0.1-0.1-0.1-0.1c0.3,0.3,0.5,1.2,1,1c0.1,0,0.2-0.3,0.1-0.4
			c-1-1.5-2.2-2.9-3.6-4.1c3.5,2.6,5.8,6.5,7,10.7C52,66.7,48.2,65.6,45.3,63.4z M45.4,59.3c-0.3-0.2-0.7-0.5-0.9-0.1
			c0-0.3,0-0.5-0.1-0.8C44.7,58.7,45,59,45.4,59.3z M44.5,67.7c0.7,0.1,1.3-0.6,1.3-1.3c0.7,0.5,1.4,0.9,2.2,1.2
			c0.2,0.3,0.5,0.5,0.7,0.8l1.1,4.1l-8.2,0.4l-9.8-6.6l-4-24.1l3.7-0.3c-0.2,1.1-0.3,2.4-0.1,3.5c0,1.8,0.7,3.6,1.8,5
			c-0.8,1.4-0.9,3.3-0.8,4.9C32.7,61.8,38.2,67.2,44.5,67.7z M41.9,59c0.3,1.9,0.4,3.8,0.8,5.6c-4.1-1.2-7.3-4.9-7.6-9.2
			c0.8,1.4,1.9,2.8,3,4c0.1,0.2,2.4,2.6,2.1,1.6c-0.9-1.1-1.7-2.3-2.2-3.6c0.1,0.2,0.3,0.5,0.4,0.7c0.2,0.4,0.8,0.1,0.6-0.3
			c-0.3-0.6-0.6-1.1-0.9-1.7c-0.1-0.2-0.4-0.2-0.5-0.1c-0.3-1-0.5-2-0.7-3c0.7,0.3,1.5,0.4,2.3,0.4c1.1,1,1.8,2.3,2.2,3.7
			c-0.4-1.1-1.1-2.1-1.9-3c-0.3-0.3-0.8,0.1-0.5,0.4c0.7,0.8,1.3,1.7,1.7,2.7c0.3,0.6,0.4,1.2,0.5,1.9c0.1,0.3,0.5,0.3,0.6,0.1
			C41.9,59.2,41.9,59.1,41.9,59z M39.1,39.4c-0.4,0-1.9-0.2-1.3,0.6c0.6,0.1,1.2-0.1,1.8,0.1h-0.1c0.7,0.1,1.3,0.3,1.9,0.6l0,0
			c0.7,0.4,1.4,0.8,2,1.2c0.8,0.6,1.6,1.2,2.4,1.7c0.1,0.1,0.3,0,0.4-0.1c0.1-0.1,0-0.3-0.1-0.4c-1-0.7-2-1.5-3.1-2.2
			c2.5,1.4,4.7,3.2,6.5,5.4c-3.5,1.6-6.6,4.7-10.6,4.4c-1.8-0.1-3.3-1.2-4.3-2.7c-0.1-0.6-0.1-1.4-0.2-2c3.3,2,7.6,1.9,11.1,0.4
			c0.1,0,0.1-0.2-0.1-0.2c-4.1,0.8-8.2-1.1-11.1-3.9c0.1-0.2,0.1-0.4,0.2-0.6C35.3,39.8,37.2,39.1,39.1,39.4z M37.9,27.7
			c-0.9,0.9-1.7,1.9-2.2,3.1c0.6-6.4,7.7-9,13.3-8.9c-0.6,5.1-4.5,12-9.8,13.2c2.5-1.5,4.6-3.6,6.2-6.1c0.4-0.6,0.8-1.2,1.1-1.8
			c0.2-0.3,0-0.6-0.3-0.5c-0.2,0-0.2,0.2-0.3,0.3c-0.6,1.1-1.4,2.3-2.2,3.3l0,0c-1.1,1.3-2.3,2.5-3.7,3.5c0.1-0.1,0.1-0.1,0.1-0.1
			c-0.3,0.2-0.6,0.4-0.9,0.6c0.2-3.4,2.9-6.4,5.5-8.4c0.3-0.2,0-0.5-0.2-0.4c-3.6,1.6-7.8,3.6-8.2,8.1c-0.2-0.5-0.3-1-0.4-1.6
			c0.2-0.1,0.1-0.2,0.2-0.3c0.6-1.4,1.4-2.6,2.4-3.6C38.8,27.8,38.3,27.3,37.9,27.7z"/>
		<path d="M8.9,74.1h1.2C10.3,63,26.5,62.9,26.9,74h1.2c0-5.3-4.4-9.5-9.7-9.5C13.3,64.4,8.7,69,8.9,74.1z"/>
		<polygon points="17.7,52.1 22.2,41.8 6.9,43.5 11.4,52.9 		"/>
		<polygon points="18.9,52.1 27,51.2 25.1,42.3 23.2,42.4 		"/>
		<polygon points="10.9,54.2 2,64.5 17.4,53.2 		"/>
		<path d="M4.8,66l-2-0.2l2.8,7.1l1.2-1.1C9,69.8,7.8,66.2,4.8,66z"/>
		<path d="M27.6,55.9c-0.2,0-11,0.5-11.1,0.5c-0.2,0-0.4,0.2-0.4,0.4s0.2,0.4,0.4,0.4c0.5,0,10.9-0.5,11.2-0.5
			C28.2,56.6,28.1,55.9,27.6,55.9z"/>
		<path d="M28,57.8c-0.2,0-14.4,0.8-14.5,0.8c-0.2,0-0.4,0.2-0.4,0.4s0.2,0.4,0.4,0.4c0.3,0,14.3-0.8,14.6-0.8
			C28.5,58.5,28.4,57.8,28,57.8z"/>
		<path d="M28.4,59.7c-0.2,0-17.7,0.9-17.9,0.9c-0.2,0-0.4,0.2-0.4,0.4s0.2,0.4,0.4,0.4c0.8,0,17.7-0.9,18-0.9
			C28.9,60.4,28.8,59.7,28.4,59.7z"/>
		<path d="M28.7,61.7c-0.2,0-21.5,1.1-21.7,1.1v0.8c1-0.1,21.5-1.1,21.8-1.1C29.3,62.4,29.2,61.7,28.7,61.7z"/>
		<path d="M34.2,69.7c-2.1,0-6.1,0-6.2,0c-0.2,0-0.4,0.2-0.4,0.4c0,0.2,0.2,0.4,0.4,0.4c0.1,0,5.6,0,6.3,0
			C34.7,70.4,34.6,69.8,34.2,69.7z"/>
		<path d="M35.7,71.1c-2.5,0.1-7.6-0.4-7.3,0.3c0,0.2,0.2,0.4,0.4,0.4c0.1-0.1,6.3,0,7,0C36.2,71.7,36.2,71.1,35.7,71.1z"/>
		<path d="M37.3,72.2c-2.7,0.1-8.2-0.5-7.9,0.3c0,0.2,0.2,0.4,0.4,0.4c0.1,0,6.8,0.1,7.6,0.1C37.8,72.9,37.8,72.3,37.3,72.2z"/>
		<path d="M39.4,73.5c0,0-8.8-0.1-8.9-0.1c-0.2,0-0.4,0.2-0.4,0.4c0,0.2,0.2,0.4,0.4,0.4c0.1,0,8.1,0.1,9,0.1
			C39.9,74.2,39.8,73.5,39.4,73.5z"/>
		<path d="M61.4,26.9L61.4,26.9L61.4,26.9L61.4,26.9z"/>
		<path d="M61.4,26.9L61.4,26.9L61.4,26.9z"/>
		<path d="M57.6,28.4c-0.6,0.5-1.2,1-1.9,1.5c0.1-0.1,0.1-0.1,0.1-0.1c-1.4,0.9-2.8,1.7-4.3,2.4c-0.1,0-0.2,0.3-0.1,0.4
			c0.2,0.5,1.5-0.5,1.9-0.6c1.7-0.9,3.3-2,4.8-3.3C58.4,28.4,58,28,57.6,28.4z"/>
		<path d="M55.7,28.1c-0.3,0.1-0.7,0.6-1,0.8c0.1-0.1,0.1-0.1,0.1-0.1c-0.5,0.4-1.2,0.7-1.8,1c-0.1,0-0.2,0.3-0.1,0.4
			c0.3,0.4,0.8-0.1,1.1-0.2c0.8-0.3,1.5-0.8,2-1.4C56.2,28.4,56.1,28.1,55.7,28.1z"/>
		<path d="M55.4,24.3c-1.5,0.4-3,0.8-4.2,1.9c-0.1,0.2-0.1,0.4,0,0.5c0.4,0.3,0.6-0.1,0.9-0.3c1-0.7,2.3-1.1,3.5-1.4
			C56,24.9,55.9,24.3,55.4,24.3z"/>
		<path d="M43.8,30.2L43.8,30.2L43.8,30.2z"/>
		<path d="M43.6,29.1c-0.4-0.4-0.8,0.4-1.1,0.6c-0.8,0.8-1.6,1.5-2.5,2.2c-0.2,0.2-0.1,0.6,0.2,0.6c0.4-0.1,0.7-0.5,1-0.7
			C41.6,31.4,44.2,29.5,43.6,29.1z"/>
		<path d="M37.6,29.1L37.6,29.1L37.6,29.1z"/>
		<path d="M41.4,40.7L41.4,40.7L41.4,40.7z"/>
		<path d="M41.7,42.2L41.7,42.2C41.7,42.3,41.7,42.3,41.7,42.2z"/>
		<path d="M43.3,42.3c-0.3-0.2-0.6-0.3-0.9-0.5c-1.2-0.6-2.4-1-3.7-1.2c-0.6,0-0.3,1.2,0.2,0.7c1.5,0.3,2.9,0.8,4.1,1.6
			C43.3,43.2,43.7,42.6,43.3,42.3z"/>
		<path d="M36.3,41.3c-0.1-0.1-0.2-0.2-0.4-0.1c-0.6,0.3,0.7,1.5,1,1.8c0.8,0.8,1.8,1.3,2.8,1.7c1.2,0.5,2.3,0.7,3.5,0.9
			c0.1,0,0.3-0.1,0.3-0.3c0.1-0.2-0.1-0.3-0.3-0.3l0,0c-1.3-0.2-2.7-0.5-3.9-1.1l0,0c-0.6-0.3-1.2-0.6-1.7-1
			C37.2,42.6,36.6,42,36.3,41.3z"/>
		<path d="M39.3,43.9L39.3,43.9L39.3,43.9z"/>
		<path d="M38.4,41.9c-0.2-0.1-0.3,0-0.4,0.2c-0.1,0.4,0.5,0.4,0.8,0.6c0.7,0.3,1.5,0.5,2.2,0.8c0.2,0.1,0.3,0,0.4-0.2
			c0.1-0.4-0.5-0.4-0.8-0.6C39.9,42.5,39.2,42.2,38.4,41.9z"/>
		<path d="M40.2,47.9c-0.5,0-1,0-1.5-0.1l0,0c-0.8-0.1-1.6-0.4-2.4-0.7c0.1,0,0,0,0,0c-0.4-0.2-0.8-0.4-1.1-0.6
			c-0.3-0.3-0.6,0.3-0.3,0.5c1.6,0.9,3.4,1.5,5.2,1.5C40.6,48.6,40.6,47.9,40.2,47.9z"/>
		<path d="M35.3,48.5c0.2,0.2,0.5,0.3,0.7,0.4c0.8,0.5,1.6,0.8,2.5,1.1c0.2,0.1,0.3,0,0.4-0.2c0.1-0.5-0.6-0.5-0.9-0.7
			c-0.9-0.3-1.6-0.7-2.4-1.1C35.2,47.8,34.9,48.4,35.3,48.5z"/>
		<path d="M55.6,40.7c0.1-0.2,0-0.4-0.2-0.4c-0.6-0.1-1.1-0.3-1.7-0.4c-2-0.4-4.2-0.6-6.2,0c-0.1,0.1-0.2,0.2-0.2,0.4
			c0,0.1,0.2,0.3,0.4,0.2c0.5-0.1,1-0.2,1.6-0.3c1.2-0.1,2.4,0,3.5,0.2l0,0c0.8,0.2,1.6,0.4,2.4,0.6C55.4,41,55.5,40.9,55.6,40.7z"
			/>
		<path d="M47.4,38.7c-0.4,0.1-0.3,0.7,0.1,0.6c0.7-0.2,1.4-0.3,2.2-0.3c0.8,0,1.6,0.1,2.4,0.2c0.1,0,0.1,0,0.2-0.1
			C53.2,37.9,47.7,38.5,47.4,38.7z"/>
		<path d="M56.5,43.8c-0.6-0.2-5-0.8-4.9,0.2c0.1,0.4,0.7,0.1,1.1,0.1c0.9-0.1,1.8-0.1,2.7,0.1h-0.1c0.4,0,0.7,0.1,1,0.2
			C56.7,44.5,56.9,43.9,56.5,43.8z"/>
		<path d="M52.5,45.3c0.6,0,1.3,0,1.9,0.1h-0.1c0.2,0,0.4,0,0.6,0.1c0.4,0.1,0.6-0.5,0.2-0.6c-1-0.2-2-0.4-2.9-0.1
			C52,45,52.1,45.4,52.5,45.3z"/>
		<path d="M59,47.1c0-0.1-0.1,0-0.2,0c-0.8,0.3-1.6,0.6-2.4,0.9l0,0h-0.1l0,0c-1.5,0.5-3,1.2-4.6,1.4c-0.4,0-0.7,0-1.1,0
			c-0.1,0-0.3,0.1-0.3,0.3c0.5,1.5,7.6-1.7,8.8-2.1C59.3,47.5,59.3,47.1,59,47.1z"/>
		<path d="M52.1,48.3c-0.1,0-0.2,0.3-0.1,0.4c0.3,0.5,0.8-0.1,1.2-0.1c0.7-0.2,1.5-0.5,2-1c0.3-0.3-0.1-0.8-0.4-0.5
			c-0.1,0.1-0.2,0.2-0.2,0.2l0,0C53.9,47.8,53,47.9,52.1,48.3z"/>
		<path d="M57.1,46.3c0-0.5-0.7-0.3-1.1-0.4c-1,0-1.9-0.1-2.9-0.1c-0.1,0-0.3,0.1-0.3,0.3c0,0.6,0.7,0.3,1.1,0.4
			c1,0,1.9,0.1,2.9,0.2C57,46.7,57.1,46.6,57.1,46.3z"/>
		<path d="M61,57.1L61,57.1L61,57.1z"/>
		<path d="M61,57.1L61,57.1L61,57.1z"/>
		<path d="M65.8,59.2c0-0.3-0.3-0.3-0.5-0.4c-1.2-0.4-2.3-0.8-3.5-1.3c-2.9-1.1-5.3-3-7.8-4.6c-0.1-0.1-0.3,0-0.4,0.1
			c-0.2,0.3,0.2,0.5,0.4,0.6c0.7,0.5,1.5,1,2.2,1.5c2.7,1.9,5.7,3.3,8.9,4.3c0.1,0.2,0.3,0.2,0.5,0.1C65.7,59.4,65.8,59.3,65.8,59.2
			z"/>
		<path d="M61,57.1L61,57.1L61,57.1z"/>
		<path d="M61.4,55.4c-0.2-0.2-0.5-0.2-0.8-0.4c-1-0.4-1.8-0.9-2.7-1.5c-0.7-0.4-1.3-1.1-2.1-1.2c-0.4-0.1-0.5,0.6-0.1,0.6l0,0
			c0.1,0,0.2,0.1,0.3,0.1l0,0c1.6,1,3.2,2.1,5,2.8C61.3,55.9,61.6,55.5,61.4,55.4z M55.8,52.8L55.8,52.8
			C55.8,52.8,55.9,52.8,55.8,52.8z M60.4,54.8L60.4,54.8L60.4,54.8z"/>
		<path d="M56.1,52.9L56.1,52.9L56.1,52.9z"/>
		<path d="M58.1,51.6c-0.3-0.1-0.5,0.3-0.4,0.5s0.4,0.3,0.6,0.4l0,0c0.7,0.4,1.6,0.7,2.3,1.2l0,0c0.1,0.2,0.3,0.3,0.5,0.2
			C62.1,53.1,58.5,52.1,58.1,51.6z M60.5,53.6L60.5,53.6L60.5,53.6z"/>
		<path d="M60.6,53.7L60.6,53.7L60.6,53.7L60.6,53.7z"/>
		<path d="M47.8,55.2C47.8,55.3,47.8,55.3,47.8,55.2C47.8,55.3,47.8,55.3,47.8,55.2z"/>
		<path d="M47.8,55.2L47.8,55.2L47.8,55.2z"/>
		<path d="M46.7,56C46.7,56,46.8,56,46.7,56L46.7,56z"/>
		<path d="M49,57.3c-0.3-0.3-2.9-3.2-2.9-1.8c0.2,0.3,0.6,0.4,0.8,0.7c0.8,0.6,1.5,1.4,2.2,2.2c0.2,0.1,0.4,0.1,0.5,0
			C49.9,58,49.2,57.6,49,57.3z"/>
		<path d="M46.7,55.9C46.7,56,46.7,55.9,46.7,55.9S46.7,56,46.7,55.9z"/>
		<path d="M46.3,57.1c0.6,0.6,1.2,1.2,1.8,1.8c0.2,0.1,0.4,0.1,0.5,0c0.1-0.2,0.1-0.4,0-0.5c-0.6-0.6-1.2-1.2-1.8-1.8
			C46.5,56.3,46.1,56.8,46.3,57.1z"/>
		<path d="M40,57.4c-0.2-0.6-0.5-1.2-0.8-1.8c0-0.1-0.2-0.2-0.4-0.1c-0.1,0-0.2,0.2-0.1,0.4c0.2,0.6,0.5,1.2,0.8,1.8
			c0,0.1,0.3,0.2,0.4,0.1C40.1,57.7,40.1,57.5,40,57.4z"/>
		<path d="M52.9,65.8c0.1,0,0.3-0.1,0.3-0.3c0-0.5-1.1-0.2-1.5-0.4h0.1c-0.7-0.1-1.4-0.3-2-0.6l0,0c-0.8-0.4-1.7-0.9-2.4-1.5
			c-0.4-0.2-1.1-0.9-1.5-1.3c-0.3-0.3-0.8,0.1-0.5,0.4C47.3,64.2,49.9,65.9,52.9,65.8z"/>
		<path d="M49,62.7c-0.1-0.2-0.5-0.2-0.7-0.3c-0.3-0.1-0.7-0.4-0.8-0.5c-0.3-0.2-0.6-0.4-0.8-0.7c-0.3-0.3-0.8,0.1-0.5,0.4
			c0.7,0.6,1.6,1.6,2.6,1.5C49,63,49,62.8,49,62.7z"/>
		<path d="M76.9,48.9L76.9,48.9c-0.7,0.9-1.6,1.7-2.5,2.4c0.1-0.1,0.1-0.1,0.1-0.1c-1,0.7-2.1,1.3-3.2,1.7c-0.4,0.2-0.9,0.4-1.4,0.5
			c-0.1,0.1-0.2,0.2-0.2,0.4c0.1,0.8,3.8-1.1,4.2-1.4c1.7-1,3.2-2.4,4.3-4c0.1-0.1,0-0.3-0.1-0.4c-0.5-0.2-0.6,0.5-0.9,0.7
			C77.2,48.7,77.1,48.8,76.9,48.9z"/>
		<path d="M73.5,49.7c0,0-0.1,0-0.2,0.1c-0.9,0.8-2,1.3-3.1,1.8c-0.4,0.1-0.8,0.2-1.3,0.3c-0.3,0.1-0.3,0.5-0.1,0.6
			c1.5,0,2.9-1,4.2-1.7C73.3,50.6,74.4,50,73.5,49.7z"/>
		<path d="M70.5,49.6c0.3-0.3-0.1-0.8-0.4-0.5c-1.1,0.8-2.9,0.7-4.3,0.5h0.1c-0.3,0-0.7-0.1-1-0.1c-0.1,0-0.3,0.1-0.3,0.3
			c0,0.5,0.6,0.3,0.9,0.4l0,0c1.5,0.3,2.9,0.3,4.3-0.1C70.1,50,70.4,49.8,70.5,49.6z"/>
		<path d="M70,46.8c-0.2-0.1-0.4,0-0.6,0c-1,0.2-2,0-3,0.3c-0.3,0.1-0.3,0.5-0.1,0.6c0.3,0.2,0.7-0.1,1-0.1h-0.1
			c0.8,0,1.7,0,2.6-0.1C70.1,47.5,70.1,47.1,70,46.8z"/>
		<path d="M73.7,40.8c-1-0.7-2-1.5-3.1-1.9c-0.4-0.1-0.6,0.5,0.1,0.7l0,0c1,0.5,1.9,1.3,2.9,1.9c0.1,0.2,0.3,0.3,0.5,0.2
			C74.5,41.4,74,41,73.7,40.8z"/>
		<path d="M69.5,40.1c-0.2-0.2-0.7-0.4-0.9,0c-0.1,0.2,0.2,0.5,0.4,0.4c0.3,0.1,0.6,0.3,0.9,0.4c0.5,0.2,1.5,0.7,2.1,1.1
			c0.3,0.6,1.3-0.1,0-0.7C71.2,40.8,70.3,40.4,69.5,40.1z M72.5,41.7L72.5,41.7L72.5,41.7L72.5,41.7z M72.1,42.1L72.1,42.1
			L72.1,42.1z M68.9,40.5L68.9,40.5L68.9,40.5z M69.1,40.3L69.1,40.3L69.1,40.3z M69.2,40.2L69.2,40.2L69.2,40.2L69.2,40.2z"/>
		<path d="M66.5,41.1c-0.2-0.1-0.3,0-0.4,0.2s0,0.3,0.2,0.4c1,0.5,2,0.9,3,1.1c0.4,0,2.8,0.6,2.3-0.4c0,0-0.1-0.1-0.2-0.1
			c-0.6,0-1.1,0-1.5-0.1l0,0C68.7,42,67.6,41.6,66.5,41.1z"/>
		<path d="M74.8,30.5c0.3-0.3-0.1-0.8-0.4-0.5c-1.5,1.5-3.2,2.9-4.9,4.2c0.1-0.1,0.1-0.1,0.1-0.1c-1.8,1.3-3.8,2.5-6,3.2
			c-0.6,0.3-1.3,0.5-2,0.6c-0.1,0.1-0.2,0.2-0.2,0.4c0.1,0.3,0.5,0.2,0.8,0.1c3-0.7,5.7-2.2,8.2-4.1C72,33.1,73.5,31.8,74.8,30.5z"
			/>
		<path d="M67.8,33.4c-0.3,0.2-0.5,0.3-0.8,0.5c-1.5,0.9-3.1,1.6-4.8,2c-0.3,0.1-0.2,0.7,0.2,0.6c2-0.5,3.9-1.4,5.7-2.5
			C68.4,33.8,68.1,33.2,67.8,33.4z"/>
		<path d="M66.7,32.5c-0.5-0.1-2.1,0.8-2.7,1c-0.4,0.2-0.1,0.8,0.3,0.6c0.7-0.4,1.5-0.7,2.3-1C66.9,33,67,32.7,66.7,32.5z"/>
		<path d="M66.4,26.7c-0.6,0.2-0.1,1.1,0.3,0.6c1.1-0.4,2.2-0.6,3.4-0.8c0.5-0.1,0.9-0.1,1.4,0c0.1,0,0.1,0,0.2-0.1
			C72.5,24.9,66.8,26.4,66.4,26.7z"/>
		<path d="M70.1,24.2c-0.2-0.2-0.6,0-0.9,0c-0.4,0.1-2.5,0.3-2.3,0.9c0,0.1,0.2,0.3,0.4,0.2c0.8-0.3,1.5-0.4,2.3-0.5
			c0.2,0,0.4,0,0.6-0.1C70.3,24.6,70.3,24.3,70.1,24.2z"/>
		<path d="M65.9,28.2c0,0.1,0.2,0.2,0.4,0.2c0.5-0.1,1-0.2,1.5-0.3c0.4-0.1,0.2-0.7-0.2-0.6C67.3,27.6,65.7,27.7,65.9,28.2z"/>
		<path d="M82.7,31.4c-0.8-0.4-1.6-0.7-2.4-0.9c-0.4-0.1-0.6,0.5-0.2,0.6c0.6,0.1,1.6,0.5,2,0.7c1.1,0.5,2.2,1.2,3.1,2
			c0,0.2,0.3,0.3,0.5,0.3C87.2,33.8,83.1,31.5,82.7,31.4z"/>
		<path d="M84.8,33.4L84.8,33.4L84.8,33.4z"/>
		<path d="M84.8,33.4L84.8,33.4L84.8,33.4z"/>
		<path d="M79.8,32.3c0.6-0.1,1.1,0.2,1.6,0.4c0.2,0,0.6,0.3,0.8,0.4c0.3,0.3,0.7-0.3,0.3-0.5c-0.8-0.5-1.6-0.9-2.4-1
			C79.6,31.5,79.3,32,79.8,32.3z M80.1,32.2C80,32.2,80.1,32.2,80.1,32.2S80,32.2,80.1,32.2z"/>
		<path d="M79.3,33c-0.4-0.1-0.4,0.6,0,0.6c0.2,0,0.5,0.1,0.7,0.1h-0.1c0.4,0,1.4,0.7,1.4-0.1C81.1,33.1,79.8,33,79.3,33z"/>
		<path d="M80.8,33.9L80.8,33.9C80.9,33.9,80.9,33.9,80.8,33.9z"/>
		<path d="M85.8,39.5c0.3-0.5-1.4-1.1-1.8-1.3c-1-0.5-2.1-0.8-3.2-0.9c-1.1-0.1-2.2-0.1-3.3,0.1c-0.1,0.1-0.2,0.2-0.2,0.4
			c0.2,0.5,0.8,0.1,1.2,0.1h-0.1c1-0.1,1.9-0.1,2.9,0.1h-0.1c0.9,0.1,1.8,0.4,2.7,0.8l0,0c0.5,0.2,0.9,0.5,1.4,0.8
			C85.5,39.7,85.7,39.7,85.8,39.5z"/>
		<path d="M83.9,38.8L83.9,38.8L83.9,38.8z"/>
		<path d="M78.6,39.4c0.1,0.4,0.7,0.1,1,0.1h-0.1c0.7-0.1,1.4,0,2.1,0.1c0.2,0,0.4-0.3,0.3-0.5c-0.4-0.5-2.3-0.3-3-0.2
			C78.7,38.9,78.6,39.1,78.6,39.4z M81.3,39.5L81.3,39.5L81.3,39.5z"/>
		<path d="M81.1,41.5c0.3,0.1,0.8-0.2,1.2-0.2c0.4-0.1,1.1,0.2,1.2-0.3c0-0.7-1.9-0.3-2.3-0.1C80.9,40.9,80.8,41.3,81.1,41.5z"/>
		<path d="M74.7,56.7c0.7,0.2,1.3,0.4,2,0.5c2.4,0.5,5.1,0.6,7.2-0.8c0.4-0.2,0-0.8-0.3-0.6c-1.8,1.2-4,1.2-6.1,0.9l0,0
			c-0.8-0.2-1.7-0.4-2.6-0.6C74.5,56,74.3,56.6,74.7,56.7z"/>
		<path d="M78.1,55.6L78.1,55.6L78.1,55.6z"/>
		<path d="M78.1,55.6L78.1,55.6c-0.3,0-1-0.5-1.2,0c-0.1,0.2,0,0.4,0.2,0.4c1,0.2,2,0.3,3,0.4c0.1,0,0.3-0.1,0.3-0.3
			c0-0.1-0.1-0.3-0.3-0.3C79.4,55.8,78.7,55.7,78.1,55.6z"/>
		<path d="M80.6,54.2c-0.2,0.1-0.5,0-0.8,0h0.1c-0.2-0.1-0.5-0.2-0.8-0.3l0,0c-0.1,0-0.3-0.1-0.4-0.2c-0.3-0.3-0.7,0.3-0.3,0.5
			c0.7,0.4,1.7,0.8,2.5,0.5C81.1,54.5,80.9,54.2,80.6,54.2z"/>
		<path d="M79.1,53.9L79.1,53.9C79.1,53.9,79,53.9,79.1,53.9z"/>
		<path d="M81,52.8C81,52.7,81,52.7,81,52.8C81,52.7,81,52.7,81,52.8z"/>
		<path d="M81,52.8L81,52.8L81,52.8z"/>
		<path d="M83,60.5c0-0.1-0.1,0-0.2,0c-0.6,0.4-1.2,0.7-1.9,1c-1.2,0.5-2.5,0.7-3.8,0.6c-0.1,0-0.3,0.1-0.3,0.3
			c0,0.6,1.3,0.3,1.7,0.3c1.7-0.1,3.3-0.6,4.7-1.6C83.4,61,83.4,60.6,83,60.5z"/>
		<path d="M79.5,60.7c-0.5,0-0.9,0.3-1.4,0.3c-0.3,0.1-0.9-0.2-1,0.3c0,0.8,2.1,0.2,2.5,0C79.8,61.2,79.8,60.8,79.5,60.7z"/>
		<path d="M61.6,62.4c1,0.1,2,0.1,3,0.1c0.1,0,0.3-0.1,0.3-0.3c0-0.6-0.8-0.3-1.2-0.4c-1.1-0.1-2.2-0.1-3.3-0.3h0.1
			c-0.9-0.1-1.8-0.3-2.6-0.7c-0.3-0.1-0.7-0.6-1-0.2C56.4,61.5,60.9,62.4,61.6,62.4z"/>
		<path d="M58,62.8c0.9,0.5,2,0.8,3.1,0.6c0.3-0.1,0.3-0.5,0.1-0.6c-0.5-0.1-1.1,0-1.6-0.1h0.1c-0.4,0-0.8-0.2-1.1-0.3
			c-0.1,0-0.2-0.1-0.3-0.1C57.9,62.1,57.6,62.6,58,62.8z"/>
		<path d="M58.6,62.4L58.6,62.4L58.6,62.4z"/>
		<path d="M61.7,70.3c-0.3,0-0.7,0-1.1-0.1h0.1c-1.2-0.3-2.2-0.7-3.2-1.5l0,0l0,0c-0.2-0.2-0.7-0.5-0.8,0c0.1,0.4,0.8,0.7,1.1,1
			c1.2,0.7,2.6,1.2,4,1.2C62.2,70.9,62.3,70.2,61.7,70.3z"/>
		<path d="M56.3,69.4c-0.2-0.2-0.5-0.7-0.8-0.4c-0.1,0.2-0.1,0.4,0,0.5c0.4,0.2,1.1,1.2,1.5,0.7C57.2,69.8,56.6,69.7,56.3,69.4z"/>
		<path d="M63,67.6L63,67.6L63,67.6z"/>
		<path d="M62.1,67.4C62.1,67.3,62.1,67.4,62.1,67.4S62.1,67.3,62.1,67.4z"/>
		<path d="M62.1,67.4L62.1,67.4L62.1,67.4z"/>
		<path d="M65.6,67.4c-0.9,0.1-1.8,0.3-2.7,0.1l0,0c-0.3,0-0.5-0.1-0.8-0.2c-0.4-0.3-0.9,0.1-0.5,0.5c1.2,0.7,2.7,0.5,4.1,0.3
			C66.1,68,66,67.4,65.6,67.4z"/>
		<path d="M90,44.7L90,44.7L90,44.7z"/>
		<path d="M90,44.7C90.1,44.7,90,44.7,90,44.7C90.1,44.7,90.1,44.7,90,44.7z"/>
		<path d="M87.9,45.4c0.1-0.6-2-0.3-2.4-0.3c-0.1,0-0.2,0.2-0.2,0.4c0.1,0.3,0.5,0.2,0.7,0.2h-0.1c0.5-0.1,1.1-0.1,1.7,0
			C87.8,45.7,88,45.5,87.9,45.4z"/>
		<path d="M93.3,50.6L93.3,50.6L93.3,50.6z"/>
		<path d="M92,49.4C92,49.3,92,49.4,92,49.4L92,49.4C92,49.3,92,49.3,92,49.4z"/>
	</g>
</g>
</svg>
